# xmcd CD database file
#
# Track frame offsets:
#	150
#	21435
#	44532
#	63690
#	86575
#	108542
#	112820
#	138162
#	159817
#	176770
#	196400
#	220360
#
# Disc length: 3098 seconds
#
# Revision: 0
# Processed by: cddbd v1.5.1PL2 Copyright (c) Steve Scherf et al.
# Submitted via: CDex 1.51
#
DISCID=a80c180c
DTITLE=林憶蓮 - 回來愛的身邊
DYEAR=1900
DGENRE=Other
TTITLE0=醒醒
TTITLE1=沒結果
TTITLE2=由?開始
TTITLE3=回來愛的身邊
TTITLE4=躱起來
TTITLE5=要是有? (音樂)
TTITLE6=寵愛
TTITLE7=暖暖紅塵
TTITLE8=始終一天
TTITLE9=愛的世界
TTITLE10=不捨不棄
TTITLE11=回到愛的世界 (音樂)
EXTD=
EXTT0=
EXTT1=
EXTT2=
EXTT3=
EXTT4=
EXTT5=
EXTT6=
EXTT7=
EXTT8=
EXTT9=
EXTT10=
EXTT11=
PLAYORDER=
